<svg width="40" height="40" viewBox="0 0 40 40" fill="none" xmlns="http://www.w3.org/2000/svg">
<path d="M18.2949 30.2747L12.7754 34.4059C12.3817 34.7164 11.9116 34.9129 11.4154 34.9744C10.9192 35.036 10.4158 34.9601 9.95919 34.7551C9.50258 34.5501 9.11003 34.2236 8.82369 33.8107C8.53736 33.3978 8.36806 32.9142 8.33398 32.4117V10.8362C8.36262 10.0411 8.54644 9.25961 8.87495 8.53621C9.20346 7.81281 9.67021 7.16171 10.2485 6.62011C10.8269 6.07851 11.5054 5.65703 12.2455 5.37975C12.9855 5.10247 13.7725 4.97483 14.5616 5.0041H25.4397C27.0324 4.94801 28.5823 5.53036 29.7496 6.62354C30.9169 7.71673 31.6065 9.23158 31.6673 10.8362V32.4149C31.634 32.9178 31.4652 33.402 31.1789 33.8154C30.8927 34.2287 30.4999 34.5555 30.0429 34.7605C29.586 34.9656 29.0821 35.041 28.5857 34.9788C28.0893 34.9166 27.6192 34.7191 27.2259 34.4076L21.7064 30.2763C21.2108 29.9128 20.6136 29.717 20.0007 29.717C19.3877 29.717 18.7905 29.9112 18.2949 30.2747Z" stroke="currentColor" stroke-width="1.5" stroke-linecap="round" stroke-linejoin="round"/>
<path d="M18.1027 13.938C18.9473 12.4234 19.3693 11.666 20.0007 11.666C20.632 11.666 21.054 12.4234 21.8986 13.938L22.1173 14.33C22.3573 14.7607 22.4773 14.976 22.6639 15.118C22.8506 15.26 23.0839 15.3127 23.5506 15.418L23.9746 15.514C25.6145 15.8854 26.4338 16.0707 26.6292 16.698C26.8238 17.3247 26.2652 17.9787 25.1472 19.286L24.8579 19.624C24.5405 19.9954 24.3812 20.1814 24.3099 20.4107C24.2386 20.6407 24.2625 20.8887 24.3105 21.384L24.3545 21.8354C24.5232 23.5801 24.6079 24.4521 24.0972 24.8394C23.5866 25.2274 22.8186 24.8734 21.284 24.1667L20.886 23.9841C20.45 23.7827 20.232 23.6827 20.0007 23.6827C19.7693 23.6827 19.5513 23.7827 19.1153 23.9841L18.718 24.1667C17.1827 24.8734 16.4147 25.2267 15.9047 24.8401C15.3934 24.4521 15.4781 23.5801 15.6468 21.8354L15.6908 21.3847C15.7388 20.8887 15.7628 20.6407 15.6908 20.4114C15.6201 20.1814 15.4608 19.9954 15.1434 19.6247L14.8541 19.286C13.7361 17.9794 13.1775 17.3254 13.3721 16.698C13.5675 16.0707 14.3874 15.8847 16.0274 15.514L16.4514 15.418C16.9174 15.3127 17.1501 15.26 17.3374 15.118C17.524 14.976 17.644 14.7607 17.884 14.33L18.1027 13.938Z" stroke="currentColor" stroke-width="1.5"/>
</svg>
