<svg width="24" height="24" viewBox="0 0 24 24" fill="none" xmlns="http://www.w3.org/2000/svg">
<path d="M12 2.4375C10.1087 2.4375 8.25991 2.99833 6.68736 4.04907C5.11482 5.09981 3.88917 6.59327 3.16541 8.34059C2.44164 10.0879 2.25227 12.0106 2.62125 13.8656C2.99022 15.7205 3.90096 17.4244 5.2383 18.7617C6.57564 20.099 8.27951 21.0098 10.1345 21.3788C11.9894 21.7477 13.9121 21.5584 15.6594 20.8346C17.4067 20.1108 18.9002 18.8852 19.9509 17.3126C21.0017 15.7401 21.5625 13.8913 21.5625 12C21.5595 9.46478 20.5511 7.03425 18.7584 5.24158C16.9658 3.44891 14.5352 2.44048 12 2.4375ZM12 20.4375C10.3312 20.4375 8.69992 19.9426 7.31238 19.0155C5.92484 18.0884 4.84338 16.7706 4.20477 15.2289C3.56616 13.6871 3.39907 11.9906 3.72463 10.3539C4.05019 8.71721 4.85379 7.21379 6.03379 6.03379C7.2138 4.85378 8.71722 4.05019 10.3539 3.72462C11.9906 3.39906 13.6871 3.56615 15.2289 4.20477C16.7706 4.84338 18.0884 5.92484 19.0155 7.31238C19.9427 8.69992 20.4375 10.3312 20.4375 12C20.435 14.237 19.5453 16.3817 17.9635 17.9635C16.3817 19.5453 14.237 20.435 12 20.4375ZM8.8125 12C8.8125 12.669 9.023 13.321 9.41417 13.8638C9.80534 14.4065 10.3574 14.8124 10.992 15.0239C11.6267 15.2355 12.3118 15.242 12.9504 15.0425C13.589 14.843 14.1486 14.4477 14.55 13.9125C14.6396 13.7932 14.773 13.7143 14.9208 13.6933C15.0686 13.6723 15.2186 13.7108 15.338 13.8005C15.4573 13.8901 15.5362 14.0235 15.5572 14.1713C15.5782 14.319 15.5396 14.4691 15.45 14.5884C14.9068 15.3123 14.1496 15.8469 13.2857 16.1166C12.4218 16.3863 11.495 16.3773 10.6364 16.091C9.77788 15.8047 9.03118 15.2556 8.50205 14.5213C7.97293 13.7871 7.68821 12.905 7.68821 12C7.68821 11.095 7.97293 10.2129 8.50205 9.47867C9.03118 8.74445 9.77788 8.1953 10.6364 7.90899C11.495 7.62268 12.4218 7.61373 13.2857 7.8834C14.1496 8.15307 14.9068 8.6877 15.45 9.41156C15.5396 9.53091 15.5782 9.68098 15.5572 9.82875C15.5362 9.97652 15.4573 10.1099 15.338 10.1995C15.2186 10.2892 15.0686 10.3277 14.9208 10.3067C14.773 10.2857 14.6396 10.2068 14.55 10.0875C14.1486 9.5523 13.589 9.15696 12.9504 8.95749C12.3118 8.75801 11.6267 8.76452 10.992 8.97607C10.3574 9.18763 9.80534 9.59351 9.41417 10.1362C9.023 10.679 8.8125 11.331 8.8125 12Z" fill="white"/>
</svg>
