<svg width="20" height="20" viewBox="0 0 20 20" fill="none" xmlns="http://www.w3.org/2000/svg">
<path d="M8.33594 4.20522C8.38863 3.87539 8.46727 3.58604 8.57567 3.33268C9.14326 2.00605 10.4193 1.66602 13.2699 1.66602C17.5026 1.66602 18.3359 3.33268 18.3359 6.74443C18.3359 9.16602 18.1501 10.9998 16.6693 11.4665C16.4192 11.5454 16.1322 11.6091 15.8029 11.666" stroke="currentColor" stroke-width="1.5" stroke-linecap="round" stroke-linejoin="round"/>
<path d="M7.5013 18.3327C11.668 18.3327 13.3346 17.0827 13.3346 12.4993C13.3346 7.91602 11.668 6.66602 7.5013 6.66602C3.33464 6.66602 1.66797 7.63824 1.66797 12.4993C1.66797 17.3605 3.33464 18.3327 7.5013 18.3327Z" stroke="currentColor" stroke-width="1.5" stroke-linecap="round" stroke-linejoin="round"/>
<path d="M5.83333 7.5C5.83333 7.5 6.33714 9.49619 5.41667 10.4167C4.49619 11.3371 2.5 10.8333 2.5 10.8333" stroke="currentColor" stroke-width="1.5" stroke-linecap="round" stroke-linejoin="round"/>
</svg>
