<svg width="20" height="20" viewBox="0 0 20 20" fill="none" xmlns="http://www.w3.org/2000/svg">
<path d="M5 16.666C6.38071 16.666 7.5 15.5467 7.5 14.166C7.5 12.7853 6.38071 11.666 5 11.666C3.61929 11.666 2.5 12.7853 2.5 14.166C2.5 15.5467 3.61929 16.666 5 16.666Z" stroke="black" stroke-width="1.5" stroke-linecap="round" stroke-linejoin="round"/>
<path d="M14.168 16.666C15.5487 16.666 16.668 15.5467 16.668 14.166C16.668 12.7853 15.5487 11.666 14.168 11.666C12.7873 11.666 11.668 12.7853 11.668 14.166C11.668 15.5467 12.7873 16.666 14.168 16.666Z" stroke="black" stroke-width="1.5" stroke-linecap="round" stroke-linejoin="round"/>
<path d="M7.5 15H11.6667" stroke="black" stroke-width="1.5" stroke-linecap="round" stroke-linejoin="round"/>
<path d="M16.668 15.0007H17.0846C17.918 15.0007 18.3346 14.584 18.3346 13.0562V10.0007C18.3346 8.33398 17.918 7.70898 17.0846 6.25065C16.032 4.4086 15.8346 3.33398 12.918 3.33398C10.418 3.33398 5.0013 3.33398 5.0013 3.33398C2.5013 3.33398 1.66797 4.58398 1.66797 7.22287V13.0562" stroke="black" stroke-width="1.5" stroke-linecap="round" stroke-linejoin="round"/>
<path d="M4.16797 5.83398H5.83464" stroke="black" stroke-width="1.5" stroke-linecap="round" stroke-linejoin="round"/>
<path d="M12.5 3.33398C12.5 3.33398 12.6528 6.47501 13.8725 7.82116C15.0923 9.16732 18.3333 9.16732 18.3333 9.16732" stroke="black" stroke-width="1.5" stroke-miterlimit="10" stroke-linecap="round" stroke-linejoin="round"/>
<path d="M2.5013 15.0007C2.0013 15.0007 1.66797 14.6673 1.66797 14.1673V13.334" stroke="black" stroke-width="1.5" stroke-linecap="round" stroke-linejoin="round"/>
</svg>
