<svg width="32" height="32" viewBox="0 0 32 32" fill="none" xmlns="http://www.w3.org/2000/svg">
<path d="M3 18H8.14667C8.70373 18.0001 9.24975 18.1554 9.72356 18.4483C10.1974 18.7413 10.5803 19.1604 10.8293 19.6587L11.1707 20.3413C11.4198 20.8398 11.8029 21.259 12.277 21.552C12.7511 21.845 13.2974 22.0001 13.8547 22H18.1453C18.7026 22.0001 19.2489 21.845 19.723 21.552C20.1971 21.259 20.5802 20.8398 20.8293 20.3413L21.1707 19.6587C21.4198 19.1602 21.8029 18.741 22.277 18.448C22.7511 18.155 23.2974 17.9999 23.8547 18H29M3 18.4507V24C3 24.7957 3.31607 25.5587 3.87868 26.1213C4.44129 26.6839 5.20435 27 6 27H26C26.7957 27 27.5587 26.6839 28.1213 26.1213C28.6839 25.5587 29 24.7957 29 24V18.4507C29 18.152 28.9547 17.8547 28.8667 17.5693L25.6533 7.11733C25.4646 6.50432 25.0844 5.96793 24.5685 5.58687C24.0525 5.2058 23.4281 5.00012 22.7867 5H9.21467C8.57327 5.00012 7.94879 5.2058 7.43286 5.58687C6.91693 5.96793 6.53671 6.50432 6.348 7.11733L3.13333 17.5693C3.04525 17.8548 3.00031 18.1519 3 18.4507Z" stroke="currentColor" stroke-width="1.5" stroke-linecap="round" stroke-linejoin="round"/>
</svg>
