<svg width="32" height="32" viewBox="0 0 32 32" fill="none" xmlns="http://www.w3.org/2000/svg">
<path d="M9.33333 5.33333C9.33333 6.06971 9.93029 6.66667 10.6667 6.66667C11.403 6.66667 12 6.06971 12 5.33333C12 4.59695 11.403 4 10.6667 4C9.93029 4 9.33333 4.59695 9.33333 5.33333Z" fill="currentColor" stroke="currentColor" stroke-width="1.5"/>
<path d="M19.9974 5.33333C19.9974 6.06971 20.5943 6.66667 21.3307 6.66667C22.0671 6.66667 22.6641 6.06971 22.6641 5.33333C22.6641 4.59695 22.0671 4 21.3307 4C20.5943 4 19.9974 4.59695 19.9974 5.33333Z" fill="currentColor" stroke="currentColor" stroke-width="1.5"/>
<path d="M9.33333 15.9993C9.33333 16.7357 9.93029 17.3327 10.6667 17.3327C11.403 17.3327 12 16.7357 12 15.9993C12 15.263 11.403 14.666 10.6667 14.666C9.93029 14.666 9.33333 15.263 9.33333 15.9993Z" fill="currentColor" stroke="currentColor" stroke-width="1.5"/>
<path d="M19.9974 15.9993C19.9974 16.7357 20.5943 17.3327 21.3307 17.3327C22.0671 17.3327 22.6641 16.7357 22.6641 15.9993C22.6641 15.263 22.0671 14.666 21.3307 14.666C20.5943 14.666 19.9974 15.263 19.9974 15.9993Z" fill="currentColor" stroke="currentColor" stroke-width="1.5"/>
<path d="M9.33333 26.6673C9.33333 27.4037 9.93029 28.0007 10.6667 28.0007C11.403 28.0007 12 27.4037 12 26.6673C12 25.9309 11.403 25.334 10.6667 25.334C9.93029 25.334 9.33333 25.9309 9.33333 26.6673Z" fill="currentColor" stroke="currentColor" stroke-width="1.5"/>
<path d="M19.9974 26.6673C19.9974 27.4037 20.5943 28.0007 21.3307 28.0007C22.0671 28.0007 22.6641 27.4037 22.6641 26.6673C22.6641 25.9309 22.0671 25.334 21.3307 25.334C20.5943 25.334 19.9974 25.9309 19.9974 26.6673Z" fill="currentColor" stroke="currentColor" stroke-width="1.5"/>
</svg>
