<svg width="111" height="90" viewBox="0 0 111 90" fill="none" xmlns="http://www.w3.org/2000/svg">
<circle cx="45" cy="45" r="44" stroke="currentColor" stroke-width="2"/>
<path d="M18.7309 42C18.6375 42 18.5909 41.9533 18.5909 41.86V32.97C18.5909 32.8767 18.6375 32.83 18.7309 32.83H23.7149C23.8082 32.83 23.8549 32.8767 23.8549 32.97V33.768C23.8549 33.8613 23.8082 33.908 23.7149 33.908H19.7809V36.82H23.3789C23.4722 36.82 23.5189 36.8667 23.5189 36.96V37.716C23.5189 37.8093 23.4722 37.856 23.3789 37.856H19.7809V40.922H23.7149C23.8082 40.922 23.8549 40.9687 23.8549 41.062V41.86C23.8549 41.9533 23.8082 42 23.7149 42H18.7309ZM25.0824 42C25.0264 42 24.989 41.986 24.9704 41.958C24.961 41.9207 24.9704 41.8787 24.9984 41.832L27.9944 37.268L25.1944 32.998C25.1664 32.9513 25.157 32.914 25.1664 32.886C25.185 32.8487 25.2224 32.83 25.2784 32.83H26.3984C26.4637 32.83 26.515 32.858 26.5524 32.914L28.1344 35.336C28.237 35.504 28.3444 35.6813 28.4564 35.868C28.5777 36.0453 28.6897 36.218 28.7924 36.386H28.8064C28.9184 36.1993 29.0304 36.0127 29.1424 35.826C29.2637 35.6393 29.385 35.4573 29.5064 35.28L31.0324 32.914C31.079 32.858 31.135 32.83 31.2004 32.83H32.2644C32.3204 32.83 32.353 32.8487 32.3624 32.886C32.3811 32.914 32.3764 32.9513 32.3484 32.998L29.5624 37.296L32.5164 41.832C32.5444 41.8787 32.5491 41.9207 32.5304 41.958C32.5211 41.986 32.4884 42 32.4324 42H31.3124C31.2471 42 31.1911 41.972 31.1444 41.916L29.4784 39.354C29.357 39.1673 29.231 38.976 29.1004 38.78C28.979 38.5747 28.8624 38.3787 28.7504 38.192H28.7364C28.6244 38.3693 28.5077 38.556 28.3864 38.752C28.265 38.948 28.1437 39.1393 28.0224 39.326L26.3564 41.902C26.3097 41.9673 26.2537 42 26.1884 42H25.0824ZM33.9623 42C33.869 42 33.8223 41.9533 33.8223 41.86V32.97C33.8223 32.8767 33.869 32.83 33.9623 32.83H36.3003C37.4297 32.83 38.279 33.0727 38.8483 33.558C39.4177 34.034 39.7023 34.7433 39.7023 35.686C39.7023 36.6193 39.413 37.3287 38.8343 37.814C38.265 38.2993 37.4203 38.542 36.3003 38.542H35.0123V41.86C35.0123 41.9533 34.9657 42 34.8723 42H33.9623ZM35.0123 37.534H36.2723C37.0563 37.534 37.6257 37.3893 37.9803 37.1C38.335 36.8013 38.5123 36.344 38.5123 35.728C38.5123 35.0653 38.3257 34.5847 37.9523 34.286C37.5883 33.9873 37.019 33.838 36.2443 33.838H35.0123V37.534ZM41.6122 42C41.5189 42 41.4722 41.9533 41.4722 41.86V32.97C41.4722 32.8767 41.5189 32.83 41.6122 32.83H42.5222C42.6156 32.83 42.6622 32.8767 42.6622 32.97V40.922H46.5262C46.6196 40.922 46.6662 40.9687 46.6662 41.062V41.86C46.6662 41.9533 46.6196 42 46.5262 42H41.6122ZM51.1546 42.168C49.988 42.168 49.1153 41.8833 48.5366 41.314C47.9673 40.7353 47.6826 39.9233 47.6826 38.878V35.952C47.6826 34.8973 47.9673 34.0853 48.5366 33.516C49.1153 32.9467 49.988 32.662 51.1546 32.662C52.3213 32.662 53.1893 32.9467 53.7586 33.516C54.3373 34.0853 54.6266 34.8973 54.6266 35.952V38.878C54.6266 39.9233 54.3373 40.7353 53.7586 41.314C53.1893 41.8833 52.3213 42.168 51.1546 42.168ZM51.1546 41.118C51.9013 41.118 52.466 40.9267 52.8486 40.544C53.2406 40.1613 53.4366 39.6013 53.4366 38.864V35.966C53.4366 35.2193 53.2406 34.6593 52.8486 34.286C52.466 33.9033 51.9013 33.712 51.1546 33.712C50.4173 33.712 49.8526 33.9033 49.4606 34.286C49.0686 34.6593 48.8726 35.2193 48.8726 35.966V38.864C48.8726 39.6013 49.0686 40.1613 49.4606 40.544C49.8526 40.9267 50.4173 41.118 51.1546 41.118ZM56.9941 42C56.9007 42 56.8541 41.9533 56.8541 41.86V32.97C56.8541 32.8767 56.9007 32.83 56.9941 32.83H59.6961C60.8067 32.83 61.6281 33.04 62.1601 33.46C62.7014 33.88 62.9721 34.51 62.9721 35.35C62.9721 36.022 62.8087 36.582 62.4821 37.03C62.1647 37.4687 61.7121 37.772 61.1241 37.94V37.954L63.4621 41.832C63.4901 41.8787 63.4947 41.9207 63.4761 41.958C63.4574 41.986 63.4201 42 63.3641 42H62.2861C62.2114 42 62.1554 41.9673 62.1181 41.902L59.8361 38.094H58.0441V41.86C58.0441 41.9533 57.9974 42 57.9041 42H56.9941ZM58.0441 37.142H59.5701C60.3541 37.142 60.9187 37.0067 61.2641 36.736C61.6094 36.4653 61.7821 36.0313 61.7821 35.434C61.7821 34.8553 61.6187 34.4447 61.2921 34.202C60.9747 33.9593 60.4287 33.838 59.6541 33.838H58.0441V37.142ZM65.4643 42C65.371 42 65.3243 41.9533 65.3243 41.86V32.97C65.3243 32.8767 65.371 32.83 65.4643 32.83H70.4483C70.5416 32.83 70.5883 32.8767 70.5883 32.97V33.768C70.5883 33.8613 70.5416 33.908 70.4483 33.908H66.5143V36.82H70.1123C70.2056 36.82 70.2523 36.8667 70.2523 36.96V37.716C70.2523 37.8093 70.2056 37.856 70.1123 37.856H66.5143V40.922H70.4483C70.5416 40.922 70.5883 40.9687 70.5883 41.062V41.86C70.5883 41.9533 70.5416 42 70.4483 42H65.4643ZM30.8178 58C30.7245 58 30.6778 57.9533 30.6778 57.86V48.97C30.6778 48.8767 30.7245 48.83 30.8178 48.83H32.4418C32.5258 48.83 32.5818 48.8627 32.6098 48.928L35.2418 54.276C35.4191 54.6213 35.5731 54.934 35.7038 55.214C35.8438 55.494 35.9651 55.7553 36.0678 55.998C36.1798 56.2407 36.2825 56.4787 36.3758 56.712H36.4038C36.4038 56.516 36.4038 56.3153 36.4038 56.11C36.4038 55.8953 36.3991 55.6807 36.3898 55.466C36.3898 55.2513 36.3898 55.0413 36.3898 54.836C36.3898 54.6213 36.3898 54.416 36.3898 54.22V48.97C36.3898 48.8767 36.4365 48.83 36.5298 48.83H37.4258C37.5191 48.83 37.5658 48.8767 37.5658 48.97V57.86C37.5658 57.9533 37.5191 58 37.4258 58H35.8438C35.7598 58 35.7038 57.9673 35.6758 57.902L33.0858 52.694C32.9365 52.386 32.7918 52.092 32.6518 51.812C32.5118 51.5227 32.3765 51.238 32.2458 50.958C32.1151 50.678 31.9891 50.398 31.8678 50.118H31.8398C31.8398 50.3607 31.8398 50.594 31.8398 50.818C31.8398 51.0327 31.8398 51.2473 31.8398 51.462C31.8491 51.6767 31.8538 51.896 31.8538 52.12C31.8538 52.3347 31.8538 52.5633 31.8538 52.806V57.86C31.8538 57.9533 31.8071 58 31.7138 58H30.8178ZM43.2723 58.168C42.1057 58.168 41.233 57.8833 40.6543 57.314C40.085 56.7353 39.8003 55.9233 39.8003 54.878V51.952C39.8003 50.8973 40.085 50.0853 40.6543 49.516C41.233 48.9467 42.1057 48.662 43.2723 48.662C44.439 48.662 45.307 48.9467 45.8763 49.516C46.455 50.0853 46.7443 50.8973 46.7443 51.952V54.878C46.7443 55.9233 46.455 56.7353 45.8763 57.314C45.307 57.8833 44.439 58.168 43.2723 58.168ZM43.2723 57.118C44.019 57.118 44.5837 56.9267 44.9663 56.544C45.3583 56.1613 45.5543 55.6013 45.5543 54.864V51.966C45.5543 51.2193 45.3583 50.6593 44.9663 50.286C44.5837 49.9033 44.019 49.712 43.2723 49.712C42.535 49.712 41.9703 49.9033 41.5783 50.286C41.1863 50.6593 40.9903 51.2193 40.9903 51.966V54.864C40.9903 55.6013 41.1863 56.1613 41.5783 56.544C41.9703 56.9267 42.535 57.118 43.2723 57.118ZM50.6687 58C50.5847 58 50.5334 57.9627 50.5147 57.888L47.9527 48.984C47.9247 48.8813 47.9667 48.83 48.0787 48.83H49.0027C49.0867 48.83 49.138 48.8673 49.1567 48.942L50.7807 54.724C50.846 54.9387 50.9067 55.158 50.9627 55.382C51.0187 55.5967 51.0747 55.816 51.1307 56.04C51.196 56.2547 51.2567 56.474 51.3127 56.698H51.3267C51.4294 56.3713 51.5274 56.0493 51.6207 55.732C51.7234 55.4147 51.8214 55.0973 51.9147 54.78L53.0907 50.874L52.5867 49.124C52.5774 49.0773 52.582 49.04 52.6007 49.012C52.6287 48.984 52.666 48.97 52.7127 48.97H53.6647C53.7487 48.97 53.8 49.012 53.8187 49.096L55.4007 54.906C55.4847 55.2047 55.564 55.5033 55.6387 55.802C55.7227 56.1007 55.8067 56.3993 55.8907 56.698H55.9047C55.9607 56.4833 56.0167 56.2687 56.0727 56.054C56.1287 55.8393 56.1847 55.6247 56.2407 55.41C56.2967 55.1953 56.3527 54.9807 56.4087 54.766L57.9767 48.942C57.9954 48.8673 58.0467 48.83 58.1307 48.83H59.0967C59.2087 48.83 59.2507 48.8813 59.2227 48.984L56.7587 57.888C56.74 57.9627 56.6887 58 56.6047 58H55.2747C55.1907 58 55.1394 57.9627 55.1207 57.888L54.1687 54.598C54.0754 54.29 53.9867 53.982 53.9027 53.674C53.8187 53.366 53.7347 53.058 53.6507 52.75H53.6367C53.5434 53.0487 53.45 53.352 53.3567 53.66C53.2727 53.9587 53.184 54.2573 53.0907 54.556L52.0967 57.888C52.0874 57.9253 52.0687 57.9533 52.0407 57.972C52.022 57.9907 51.9894 58 51.9427 58H50.6687Z" fill="currentColor"/>
<rect x="78" y="32" width="32" height="26" fill="white"/>
<path d="M73.1823 45C73.1823 47.9455 75.5701 50.3333 78.5156 50.3333C81.4611 50.3333 83.849 47.9455 83.849 45C83.849 42.0545 81.4611 39.6667 78.5156 39.6667C75.5701 39.6667 73.1823 42.0545 73.1823 45ZM110.19 45.7071C110.581 45.3166 110.581 44.6834 110.19 44.2929L103.827 37.9289C103.436 37.5384 102.803 37.5384 102.412 37.9289C102.022 38.3195 102.022 38.9526 102.412 39.3431L108.069 45L102.412 50.6569C102.022 51.0474 102.022 51.6805 102.412 52.0711C102.803 52.4616 103.436 52.4616 103.827 52.0711L110.19 45.7071ZM78.5156 46H109.483V44H78.5156V46Z" fill="currentColor"/>
</svg>
