<svg width="40" height="40" viewBox="0 0 40 40" fill="none" xmlns="http://www.w3.org/2000/svg">
<path d="M35.4173 21.6673V14.1673C35.4173 11.9572 34.5393 9.83756 32.9765 8.27476C31.4137 6.71196 29.2941 5.83398 27.084 5.83398H12.9173C10.7072 5.83398 8.58756 6.71196 7.02476 8.27476C5.46196 9.83756 4.58398 11.9572 4.58398 14.1673V25.834C4.58398 26.9283 4.79953 28.012 5.21832 29.023C5.63711 30.0341 6.25094 30.9527 7.02476 31.7265C8.58756 33.2893 10.7072 34.1673 12.9173 34.1673H23.3507" stroke="currentColor" stroke-width="1.5" stroke-linecap="round" stroke-linejoin="round"/>
<path d="M5.01758 28.3347L9.58425 23.0014C10.184 22.4057 10.9711 22.0356 11.8124 21.9536C12.6537 21.8716 13.4974 22.0827 14.2009 22.5514C14.9044 23.02 15.7482 23.2312 16.5894 23.1492C17.4307 23.0671 18.2178 22.697 18.8176 22.1014L22.7009 18.218C23.8167 17.0984 25.2941 16.4117 26.8693 16.2804C28.4445 16.1492 30.0152 16.5819 31.3009 17.5014L35.4176 20.6847M13.3509 16.9514C13.7142 16.9492 14.0736 16.8754 14.4084 16.7344C14.7432 16.5933 15.047 16.3877 15.3024 16.1292C15.5577 15.8708 15.7597 15.5646 15.8967 15.228C16.0337 14.8915 16.1031 14.5313 16.1009 14.168C16.0987 13.8047 16.025 13.4454 15.8839 13.1105C15.7429 12.7757 15.5372 12.4719 15.2788 12.2166C15.0203 11.9612 14.7141 11.7593 14.3776 11.6222C14.0411 11.4852 13.6809 11.4158 13.3176 11.418C12.5838 11.4224 11.8819 11.7182 11.3661 12.2401C10.8504 12.7621 10.5632 13.4676 10.5676 14.2014C10.572 14.9351 10.8677 15.6371 11.3897 16.1528C11.9117 16.6685 12.6171 16.9558 13.3509 16.9514Z" stroke="currentColor" stroke-width="1.5" stroke-linecap="round" stroke-linejoin="round"/>
<path d="M31.6567 25.834V34.1673M27.5 30.009H35.8333" stroke="currentColor" stroke-width="1.5" stroke-miterlimit="10" stroke-linecap="round"/>
</svg>
