<svg width="24" height="24" viewBox="0 0 24 24" fill="none" xmlns="http://www.w3.org/2000/svg">
<path d="M16.806 6.114C16.5924 6.114 16.3836 6.17734 16.206 6.29601C16.0284 6.41468 15.89 6.58336 15.8082 6.7807C15.7265 6.97805 15.7051 7.1952 15.7468 7.4047C15.7884 7.6142 15.8913 7.80663 16.0423 7.95768C16.1934 8.10872 16.3858 8.21158 16.5953 8.25325C16.8048 8.29492 17.022 8.27353 17.2193 8.19179C17.4166 8.11005 17.5853 7.97162 17.704 7.79402C17.8227 7.61641 17.886 7.4076 17.886 7.194C17.886 6.90757 17.7722 6.63286 17.5697 6.43032C17.3671 6.22779 17.0924 6.114 16.806 6.114ZM20.946 8.292C20.9285 7.54527 20.7886 6.80646 20.532 6.105C20.3032 5.50482 19.947 4.96135 19.488 4.512C19.0423 4.05068 18.4976 3.69676 17.895 3.477C17.1954 3.21254 16.4558 3.06949 15.708 3.054C14.754 3 14.448 3 12 3C9.552 3 9.246 3 8.292 3.054C7.54424 3.06949 6.80461 3.21254 6.105 3.477C5.50351 3.69898 4.95924 4.0526 4.512 4.512C4.05068 4.95766 3.69676 5.5024 3.477 6.105C3.21254 6.80461 3.06949 7.54424 3.054 8.292C3 9.246 3 9.552 3 12C3 14.448 3 14.754 3.054 15.708C3.06949 16.4558 3.21254 17.1954 3.477 17.895C3.69676 18.4976 4.05068 19.0423 4.512 19.488C4.95924 19.9474 5.50351 20.301 6.105 20.523C6.80461 20.7875 7.54424 20.9305 8.292 20.946C9.246 21 9.552 21 12 21C14.448 21 14.754 21 15.708 20.946C16.4558 20.9305 17.1954 20.7875 17.895 20.523C18.4976 20.3032 19.0423 19.9493 19.488 19.488C19.949 19.0403 20.3055 18.4964 20.532 17.895C20.7886 17.1935 20.9285 16.4547 20.946 15.708C20.946 14.754 21 14.448 21 12C21 9.552 21 9.246 20.946 8.292ZM19.326 15.6C19.3194 16.1713 19.216 16.7373 19.02 17.274C18.8763 17.6657 18.6455 18.0196 18.345 18.309C18.0531 18.6065 17.6999 18.8368 17.31 18.984C16.7733 19.18 16.2073 19.2834 15.636 19.29C14.736 19.335 14.403 19.344 12.036 19.344C9.669 19.344 9.336 19.344 8.436 19.29C7.8428 19.3011 7.25214 19.2098 6.69 19.02C6.3172 18.8653 5.98022 18.6355 5.7 18.345C5.40128 18.0559 5.17336 17.7017 5.034 17.31C4.81427 16.7656 4.6924 16.1867 4.674 15.6C4.674 14.7 4.62 14.367 4.62 12C4.62 9.633 4.62 9.3 4.674 8.4C4.67803 7.81595 4.78466 7.23715 4.989 6.69C5.14744 6.31012 5.39064 5.97149 5.7 5.7C5.97343 5.39055 6.31136 5.14479 6.69 4.98C7.2386 4.78204 7.8168 4.67857 8.4 4.674C9.3 4.674 9.633 4.62 12 4.62C14.367 4.62 14.7 4.62 15.6 4.674C16.1713 4.68055 16.7373 4.78402 17.274 4.98C17.683 5.13179 18.0501 5.37856 18.345 5.7C18.6399 5.97646 18.8704 6.31446 19.02 6.69C19.22 7.23804 19.3236 7.8166 19.326 8.4C19.371 9.3 19.38 9.633 19.38 12C19.38 14.367 19.371 14.7 19.326 15.6ZM12 7.383C11.0872 7.38478 10.1955 7.65707 9.43739 8.16548C8.67931 8.67388 8.08894 9.39558 7.74087 10.2394C7.3928 11.0832 7.30265 12.0112 7.48181 12.9062C7.66098 13.8013 8.10141 14.6231 8.74747 15.2679C9.39352 15.9127 10.2162 16.3515 11.1116 16.5289C12.0069 16.7064 12.9348 16.6144 13.7779 16.2647C14.621 15.915 15.3416 15.3232 15.8485 14.5641C16.3554 13.8051 16.626 12.9128 16.626 12C16.6272 11.3926 16.5083 10.7909 16.2761 10.2297C16.0439 9.66838 15.7031 9.15853 15.2732 8.72945C14.8433 8.30036 14.3328 7.96051 13.771 7.72944C13.2093 7.49836 12.6074 7.38063 12 7.383ZM12 14.997C11.4072 14.997 10.8278 14.8212 10.335 14.4919C9.8421 14.1626 9.45797 13.6945 9.23113 13.1469C9.0043 12.5993 8.94495 11.9967 9.06059 11.4153C9.17623 10.834 9.46166 10.2999 9.8808 9.8808C10.2999 9.46166 10.834 9.17623 11.4153 9.06059C11.9967 8.94495 12.5993 9.0043 13.1469 9.23113C13.6945 9.45797 14.1626 9.8421 14.4919 10.335C14.8212 10.8278 14.997 11.4072 14.997 12C14.997 12.3936 14.9195 12.7833 14.7689 13.1469C14.6183 13.5105 14.3975 13.8409 14.1192 14.1192C13.8409 14.3975 13.5105 14.6183 13.1469 14.7689C12.7833 14.9195 12.3936 14.997 12 14.997Z" fill="currentColor"/>
</svg>
