<svg width="40" height="40" viewBox="0 0 40 40" fill="none" xmlns="http://www.w3.org/2000/svg">
<path d="M35.8327 12.4993C35.8327 12.8827 35.1493 13.5493 34.066 14.3493C30.781 16.6365 27.2404 18.5327 23.516 19.9993C22.3942 20.4581 21.2077 20.7393 19.9993 20.8327C18.791 20.7393 17.6045 20.4581 16.4827 19.9993C12.7583 18.5327 9.21767 16.6365 5.93268 14.3493C4.84935 13.5493 4.16602 12.8827 4.16602 12.4993C4.16602 12.116 4.84935 11.4493 5.93268 10.6493C9.21767 8.36216 12.7583 6.46601 16.4827 4.99935C17.6045 4.54059 18.791 4.25944 19.9993 4.16602C21.2077 4.25944 22.3942 4.54059 23.516 4.99935C27.2373 6.44498 30.7778 8.31869 34.066 10.5827C35.1493 11.4493 35.8327 12.116 35.8327 12.4993Z" stroke="currentColor" stroke-width="1.5" stroke-linecap="round" stroke-linejoin="round"/>
<path d="M35.8327 29.166C34.066 30.8327 23.516 35.8327 19.9993 35.8327C16.4827 35.8327 5.93268 30.8327 4.16602 29.166" stroke="currentColor" stroke-width="1.5" stroke-linecap="round" stroke-linejoin="round"/>
<path d="M35.8327 21.666C34.066 23.3327 23.516 28.3327 19.9993 28.3327C16.4827 28.3327 5.93268 23.3327 4.16602 21.666" stroke="currentColor" stroke-width="1.5" stroke-linecap="round" stroke-linejoin="round"/>
</svg>
