<svg width="144" height="56" viewBox="0 0 144 56" fill="none" xmlns="http://www.w3.org/2000/svg">
<path d="M16.257 32.6598C16.0921 32.2153 15.8372 31.8008 15.4673 31.4562L5.19107 21.9528C3.93652 20.7942 1.98223 20.8691 0.822655 22.1226C-0.336923 23.3761 -0.26195 25.3287 0.992593 26.4873L10.3392 35.1267V43.4216C10.3392 44.9198 11.5587 46.1383 13.0582 46.1383H13.8029C15.3024 46.1383 16.5219 44.9198 16.5219 43.4216V33.8034C16.5169 33.3939 16.422 33.0093 16.257 32.6598Z" fill="currentColor"/>
<path d="M23.5991 10.3379H3.73133C2.83666 10.3379 2.04195 10.7224 1.47715 11.3267C1.37719 11.4016 1.27723 11.4765 1.18726 11.5664C-0.0222996 12.7749 -0.0222996 14.7275 1.18726 15.9361L11.1936 25.9339C12.4032 27.1424 14.3575 27.1424 15.567 25.9339C16.7766 24.7253 16.7766 22.7727 15.567 21.5642L10.5089 16.5154H23.5941C25.3035 16.5154 26.683 15.132 26.683 13.4291C26.683 11.7262 25.3035 10.3379 23.5991 10.3379Z" fill="currentColor"/>
<path d="M19.3359 27.1618C19.3359 26.7972 19.4059 26.4576 19.5459 26.133C19.6858 25.8084 19.8807 25.5287 20.1206 25.284C20.3606 25.0393 20.6455 24.8496 20.9703 24.7097C21.2952 24.5699 21.6351 24.5 22 24.5C22.3648 24.5 22.7097 24.5699 23.0396 24.7097C23.3695 24.8496 23.6594 25.0443 23.9093 25.284C24.1592 25.5238 24.3541 25.8084 24.4941 26.128C24.634 26.4526 24.704 26.7922 24.704 27.1568V34.6776C24.704 35.2669 24.8139 35.8162 25.0289 36.3206C25.2438 36.825 25.5437 37.2594 25.9285 37.629C26.3134 37.9985 26.7632 38.2882 27.283 38.4979C27.8028 38.7077 28.3576 38.8075 28.9474 38.8075C29.5372 38.8075 30.072 38.7027 30.5419 38.4829C31.0117 38.2682 31.4115 37.9736 31.7314 37.594C32.0513 37.2145 32.3062 36.775 32.4811 36.2656C32.6561 35.7563 32.746 35.2019 32.746 34.6127V27.1568C32.746 26.7922 32.821 26.4526 32.966 26.128C33.1159 25.8034 33.3108 25.5238 33.5608 25.284C33.8107 25.0443 34.1006 24.8496 34.4404 24.7097C34.7753 24.5699 35.1252 24.5 35.4901 24.5C35.8549 24.5 36.1948 24.5699 36.5197 24.7097C36.8446 24.8496 37.1245 25.0443 37.3594 25.284C37.5943 25.5238 37.7792 25.8084 37.9142 26.133C38.0491 26.4576 38.1141 26.7972 38.1141 27.1618V34.6276C38.1141 35.946 37.8842 37.1845 37.4293 38.3431C36.9695 39.5017 36.3297 40.5105 35.51 41.3794C34.6903 42.2484 33.7207 42.9325 32.6011 43.4369C31.4815 43.9413 30.267 44.196 28.9474 44.196C27.6279 44.196 26.3834 43.9463 25.2088 43.4369C24.0392 42.9325 23.0196 42.2484 22.1499 41.3794C21.2802 40.5105 20.5955 39.5017 20.0907 38.3431C19.5858 37.1845 19.3309 35.951 19.3309 34.6276V27.1618H19.3359Z" fill="currentColor"/>
<path d="M40.8081 34.368C40.8081 33.0096 41.068 31.7312 41.5878 30.5327C42.1076 29.3341 42.8124 28.2904 43.707 27.3965C44.6017 26.5026 45.6463 25.7934 46.8359 25.2791C48.0255 24.7647 49.305 24.5 50.6645 24.5C51.8241 24.5 52.7538 24.6448 53.4535 24.9345C54.1532 25.2241 54.718 25.6536 55.1479 26.2179V20.1254C55.1479 19.7358 55.2129 19.3663 55.3478 19.0267C55.4828 18.6821 55.6677 18.3875 55.9026 18.1378C56.1375 17.8881 56.4174 17.6933 56.7423 17.5535C57.0672 17.4137 57.4221 17.3438 57.8119 17.3438C58.1868 17.3438 58.5416 17.4137 58.8715 17.5535C59.2014 17.6933 59.4863 17.8881 59.7312 18.1378C59.9711 18.3875 60.1661 18.6821 60.306 19.0267C60.446 19.3713 60.5159 19.7358 60.5159 20.1254V34.373C60.5159 35.7313 60.256 37.0048 59.7362 38.1983C59.2164 39.3869 58.5167 40.4306 57.627 41.3145C56.7373 42.2034 55.6927 42.9076 54.4981 43.4219C53.2986 43.9413 52.019 44.201 50.6595 44.201C49.3 44.201 48.0255 43.9413 46.8309 43.4219C45.6363 42.9026 44.5967 42.1984 43.7021 41.3145C42.8074 40.4256 42.0976 39.3869 41.5828 38.1983C41.068 36.9998 40.8081 35.7263 40.8081 34.368ZM46.1811 34.368C46.1811 34.9872 46.3011 35.5665 46.536 36.1059C46.7709 36.6452 47.0958 37.1146 47.5057 37.5191C47.9155 37.9236 48.3953 38.2383 48.9351 38.468C49.475 38.6977 50.0497 38.8126 50.6545 38.8126C51.2743 38.8126 51.8591 38.6977 52.4039 38.468C52.9487 38.2383 53.4285 37.9236 53.8334 37.5191C54.2382 37.1146 54.5581 36.6452 54.793 36.1059C55.0279 35.5665 55.1479 34.9872 55.1479 34.368C55.1479 33.7487 55.0279 33.1694 54.793 32.6301C54.5581 32.0908 54.2382 31.6213 53.8334 31.2168C53.4285 30.8123 52.9537 30.4977 52.4039 30.268C51.8591 30.0383 51.2743 29.9234 50.6545 29.9234C50.0447 29.9234 49.475 30.0383 48.9351 30.268C48.3953 30.4977 47.9205 30.8123 47.5057 31.2168C47.0958 31.6213 46.7709 32.0908 46.536 32.6301C46.2961 33.1694 46.1811 33.7487 46.1811 34.368Z" fill="currentColor"/>
<path d="M64.1196 27.1618C64.1196 26.7972 64.1896 26.4576 64.3295 26.133C64.4695 25.8084 64.6644 25.5287 64.9043 25.284C65.1443 25.0393 65.4291 24.8496 65.754 24.7097C66.0789 24.5699 66.4188 24.5 66.7837 24.5C67.1485 24.5 67.4934 24.5699 67.8233 24.7097C68.1532 24.8496 68.4431 25.0443 68.693 25.284C68.9429 25.5238 69.1378 25.8084 69.2777 26.128C69.4177 26.4526 69.4877 26.7922 69.4877 27.1568V34.6776C69.4877 35.2669 69.5976 35.8162 69.8125 36.3206C70.0275 36.825 70.3274 37.2594 70.7122 37.629C71.0971 37.9985 71.5469 38.2882 72.0667 38.4979C72.5865 38.7077 73.1413 38.8075 73.7311 38.8075C74.3209 38.8075 74.8557 38.7027 75.3255 38.4829C75.7954 38.2682 76.1952 37.9736 76.5151 37.594C76.835 37.2145 77.0899 36.775 77.2648 36.2656C77.4398 35.7563 77.5297 35.2019 77.5297 34.6127V27.1568C77.5297 26.7922 77.6047 26.4526 77.7497 26.128C77.8996 25.8034 78.0945 25.5238 78.3444 25.284C78.5944 25.0443 78.8842 24.8496 79.2241 24.7097C79.559 24.5699 79.9089 24.5 80.2737 24.5C80.6386 24.5 80.9785 24.5699 81.3034 24.7097C81.6283 24.8496 81.9082 25.0443 82.1431 25.284C82.378 25.5238 82.5629 25.8084 82.6979 26.133C82.8328 26.4576 82.8978 26.7972 82.8978 27.1618V34.6276C82.8978 35.946 82.6679 37.1845 82.213 38.3431C81.7532 39.5017 81.1134 40.5105 80.2937 41.3794C79.474 42.2484 78.5044 42.9325 77.3848 43.4369C76.2652 43.9413 75.0506 44.196 73.7311 44.196C72.4116 44.196 71.1671 43.9463 69.9925 43.4369C68.8229 42.9325 67.8033 42.2484 66.9336 41.3794C66.0639 40.5105 65.3792 39.5017 64.8743 38.3431C64.3695 37.1845 64.1146 35.951 64.1146 34.6276V27.1618H64.1196Z" fill="currentColor"/>
<path d="M86.4965 21.3096C86.4965 20.935 86.5714 20.5805 86.7164 20.2509C86.8663 19.9213 87.0613 19.6316 87.3012 19.3819C87.5411 19.1322 87.831 18.9375 88.1609 18.7976C88.4907 18.6578 88.8356 18.5879 89.2005 18.5879C89.5653 18.5879 89.9152 18.6578 90.2601 18.7976C90.605 18.9375 90.9049 19.1322 91.1598 19.3719C91.4147 19.6116 91.6196 19.9013 91.7745 20.2409C91.9295 20.5755 92.0045 20.935 92.0045 21.3096V23.8914H98.2072C98.5721 23.8914 98.9169 23.9613 99.2468 24.1012C99.5767 24.241 99.8666 24.4358 100.117 24.6855C100.366 24.9351 100.561 25.2248 100.701 25.5544C100.841 25.884 100.911 26.2286 100.911 26.5931C100.911 26.9577 100.841 27.2923 100.701 27.6019C100.561 27.9115 100.366 28.1862 100.117 28.4209C99.8666 28.6556 99.5767 28.8404 99.2468 28.9752C98.9169 29.1101 98.5721 29.175 98.2072 29.175H92.0145V34.3886C92.0145 35.0079 92.1244 35.5822 92.3493 36.1215C92.5693 36.6608 92.8791 37.1303 93.269 37.5298C93.6589 37.9293 94.1187 38.2489 94.6435 38.4786C95.1683 38.7083 95.7431 38.8182 96.3629 38.8182C96.9127 38.8182 97.4275 38.7433 97.8973 38.5985C98.3671 38.4487 98.787 38.209 99.1519 37.8694C99.4467 37.5997 99.7616 37.38 100.092 37.2152C100.421 37.0454 100.786 36.9605 101.191 36.9605C101.486 36.9605 101.786 37.0254 102.081 37.1502C102.376 37.2801 102.636 37.4549 102.861 37.6846C103.08 37.9143 103.265 38.179 103.405 38.4836C103.545 38.7882 103.615 39.1129 103.615 39.4624C103.615 39.8819 103.53 40.2914 103.365 40.6959C103.195 41.1004 102.955 41.46 102.651 41.7696C101.816 42.5786 100.866 43.1879 99.8016 43.5924C98.737 43.9969 97.5924 44.2016 96.3679 44.2016C95.0084 44.2016 93.7288 43.942 92.5293 43.4226C91.3297 42.9032 90.2851 42.2041 89.4004 41.3152C88.5107 40.4263 87.806 39.3825 87.2912 38.189C86.7714 36.9904 86.5115 35.712 86.5115 34.3537V21.3096H86.4965Z" fill="currentColor"/>
<path d="M105.849 27.1618C105.849 26.7972 105.919 26.4576 106.059 26.133C106.199 25.8084 106.394 25.5287 106.634 25.284C106.874 25.0393 107.159 24.8496 107.484 24.7097C107.809 24.5699 108.149 24.5 108.513 24.5C108.878 24.5 109.223 24.5699 109.553 24.7097C109.883 24.8496 110.173 25.0443 110.423 25.284C110.673 25.5238 110.868 25.8084 111.008 26.128C111.147 26.4526 111.217 26.7922 111.217 27.1568V34.6776C111.217 35.2669 111.327 35.8162 111.542 36.3206C111.757 36.825 112.057 37.2594 112.442 37.629C112.827 37.9985 113.277 38.2882 113.797 38.4979C114.316 38.7077 114.871 38.8075 115.461 38.8075C116.051 38.8075 116.586 38.7027 117.055 38.4829C117.525 38.2682 117.925 37.9736 118.245 37.594C118.565 37.2145 118.82 36.775 118.995 36.2656C119.17 35.7563 119.26 35.2019 119.26 34.6127V27.1568C119.26 26.7922 119.335 26.4526 119.479 26.128C119.629 25.8034 119.824 25.5238 120.074 25.284C120.324 25.0443 120.614 24.8496 120.954 24.7097C121.289 24.5699 121.639 24.5 122.004 24.5C122.368 24.5 122.708 24.5699 123.033 24.7097C123.358 24.8496 123.638 25.0443 123.873 25.284C124.108 25.5238 124.293 25.8084 124.428 26.133C124.563 26.4576 124.628 26.7972 124.628 27.1618V34.6276C124.628 35.946 124.398 37.1845 123.943 38.3431C123.483 39.5017 122.843 40.5105 122.024 41.3794C121.204 42.2484 120.234 42.9325 119.115 43.4369C117.995 43.9413 116.78 44.196 115.461 44.196C114.141 44.196 112.897 43.9463 111.722 43.4369C110.553 42.9325 109.533 42.2484 108.663 41.3794C107.794 40.5105 107.109 39.5017 106.604 38.3431C106.099 37.1845 105.844 35.951 105.844 34.6276V27.1618H105.849Z" fill="currentColor"/>
<path d="M137.158 38.5883C137.278 38.5883 137.408 38.5733 137.543 38.5483C137.678 38.5233 137.798 38.4734 137.908 38.4085C138.018 38.3436 138.108 38.2487 138.183 38.1288C138.258 38.009 138.293 37.8542 138.293 37.6694C138.293 37.4696 138.258 37.3148 138.183 37.2C138.108 37.0851 138.013 37.0052 137.888 36.9503C137.768 36.8953 137.633 36.8654 137.483 36.8504C137.333 36.8354 137.193 36.8304 137.058 36.8304H133.844C132.97 36.8304 132.16 36.6556 131.42 36.306C130.68 35.9565 130.046 35.4821 129.511 34.8928C128.981 34.2985 128.561 33.6193 128.256 32.8503C127.951 32.0812 127.801 31.2822 127.801 30.4432C127.801 29.6342 127.961 28.8651 128.276 28.141C128.591 27.4119 129.026 26.7777 129.571 26.2383C130.116 25.699 130.755 25.2695 131.49 24.9549C132.225 24.6403 133.01 24.4805 133.844 24.4805H140.107C140.472 24.4805 140.812 24.5404 141.137 24.6503C141.461 24.7651 141.741 24.9349 141.986 25.1546C142.231 25.3744 142.421 25.649 142.561 25.9736C142.701 26.2983 142.771 26.6678 142.771 27.0873C142.771 27.4768 142.701 27.8414 142.571 28.181C142.436 28.5205 142.256 28.8102 142.036 29.0599C141.816 29.3096 141.546 29.5043 141.237 29.6492C140.927 29.789 140.602 29.8639 140.267 29.8639H140.107H133.944C133.754 29.8639 133.579 29.9338 133.419 30.0736C133.259 30.2135 133.179 30.4082 133.179 30.6479C133.179 30.9576 133.264 31.1673 133.429 31.2722C133.599 31.3821 133.754 31.432 133.904 31.432H137.578C138.468 31.432 139.287 31.6068 140.032 31.9564C140.782 32.3059 141.421 32.7754 141.961 33.3596C142.501 33.9439 142.916 34.6231 143.216 35.3872C143.511 36.1562 143.661 36.9553 143.661 37.7892C143.661 38.6232 143.516 39.4073 143.226 40.1414C142.936 40.8755 142.531 41.5197 142.016 42.079C141.501 42.6383 140.877 43.0828 140.147 43.4224C139.417 43.757 138.627 43.9417 137.763 43.9667H129.926C129.561 43.9667 129.231 43.9018 128.936 43.762C128.641 43.6271 128.381 43.4373 128.156 43.1926C127.936 42.9479 127.761 42.6583 127.641 42.3237C127.522 41.9841 127.462 41.6146 127.462 41.2101C127.462 40.4011 127.691 39.7568 128.146 39.2874C128.606 38.813 129.196 38.5783 129.926 38.5783H137.158V38.5883Z" fill="currentColor"/>
</svg>
