<svg width="24" height="32" viewBox="0 0 24 32" fill="none" xmlns="http://www.w3.org/2000/svg">
<g clip-path="url(#clip0_2433_4830)">
<path d="M14.5203 19.9473C14.373 19.5501 14.1454 19.1796 13.815 18.8716L4.63775 10.3773C3.51737 9.34169 1.77208 9.40864 0.736509 10.529C-0.299061 11.6494 -0.232106 13.3947 0.888274 14.4303L9.23532 22.1524V29.5665C9.23532 30.9056 10.3245 31.9948 11.6636 31.9948H12.3286C13.6677 31.9948 14.7569 30.9056 14.7569 29.5665V20.9695C14.7524 20.6035 14.6676 20.2598 14.5203 19.9473Z" fill="black"/>
<path d="M21.0774 0H3.33436C2.53982 0 1.82564 0.343702 1.32124 0.883805C1.23197 0.95076 1.1427 1.01772 1.06235 1.09806C-0.0178544 2.17827 -0.0178544 3.92356 1.06235 5.00377L9.9986 13.94C11.0788 15.0202 12.8241 15.0202 13.9043 13.94C14.9845 12.8598 14.9845 11.1145 13.9043 10.0343L9.38708 5.52155H21.073C22.5995 5.52155 23.8315 4.28512 23.8315 2.76301C23.8315 1.2409 22.5995 0 21.0774 0Z" fill="black"/>
</g>
<defs>
<clipPath id="clip0_2433_4830">
<rect width="23.836" height="32" fill="white"/>
</clipPath>
</defs>
</svg>
