<svg width="24" height="24" viewBox="0 0 24 24" fill="none" xmlns="http://www.w3.org/2000/svg">
<path d="M4.875 3.75C3.97989 3.75 3.12145 4.10558 2.48851 4.73851C1.85558 5.37145 1.5 6.22989 1.5 7.125V16.875C1.5 17.7701 1.85558 18.6285 2.48851 19.2615C3.12145 19.8944 3.97989 20.25 4.875 20.25H19.125C20.0201 20.25 20.8786 19.8944 21.5115 19.2615C22.1444 18.6285 22.5 17.7701 22.5 16.875V7.125C22.5 6.22989 22.1444 5.37145 21.5115 4.73851C20.8786 4.10558 20.0201 3.75 19.125 3.75H4.875ZM21 7.80225L12 12.648L3 7.80225V7.125C3 6.62772 3.19754 6.15081 3.54917 5.79917C3.90081 5.44754 4.37772 5.25 4.875 5.25H19.125C19.6223 5.25 20.0992 5.44754 20.4508 5.79917C20.8025 6.15081 21 6.62772 21 7.125V7.80225ZM3 9.5055L11.6445 14.1608C11.7538 14.2196 11.8759 14.2504 12 14.2504C12.1241 14.2504 12.2462 14.2196 12.3555 14.1608L21 9.5055V16.875C21 17.3723 20.8025 17.8492 20.4508 18.2008C20.0992 18.5525 19.6223 18.75 19.125 18.75H4.875C4.37772 18.75 3.90081 18.5525 3.54917 18.2008C3.19754 17.8492 3 17.3723 3 16.875V9.5055Z" fill="currentColor"/>
</svg>
