<svg width="32" height="32" viewBox="0 0 32 32" fill="none" xmlns="http://www.w3.org/2000/svg">
<circle cx="16" cy="16" r="12" stroke="currentColor" stroke-width="1.5" stroke-linecap="round" stroke-linejoin="round"/>
<path d="M16.6654 15.9993C16.6654 15.6312 16.3669 15.3327 15.9987 15.3327C15.6305 15.3327 15.332 15.6312 15.332 15.9993C15.332 16.3675 15.6305 16.666 15.9987 16.666C16.3669 16.666 16.6654 16.3675 16.6654 15.9993Z" fill="currentColor" stroke="currentColor" stroke-width="1.5" stroke-linecap="round" stroke-linejoin="round"/>
<path d="M22.0013 15.9993C22.0013 15.6312 21.7028 15.3327 21.3346 15.3327C20.9664 15.3327 20.668 15.6312 20.668 15.9993C20.668 16.3675 20.9664 16.666 21.3346 16.666C21.7028 16.666 22.0013 16.3675 22.0013 15.9993Z" fill="currentColor" stroke="currentColor" stroke-width="1.5" stroke-linecap="round" stroke-linejoin="round"/>
<path d="M11.3333 15.9993C11.3333 15.6312 11.0349 15.3327 10.6667 15.3327C10.2985 15.3327 10 15.6312 10 15.9993C10 16.3675 10.2985 16.666 10.6667 16.666C11.0349 16.666 11.3333 16.3675 11.3333 15.9993Z" fill="currentColor" stroke="currentColor" stroke-width="1.5" stroke-linecap="round" stroke-linejoin="round"/>
</svg>
