<svg width="40" height="40" viewBox="0 0 40 40" fill="none" xmlns="http://www.w3.org/2000/svg">
<path d="M24.406 25.0949L21.0764 34.2514C20.9948 34.4711 20.848 34.6606 20.6556 34.7944C20.4631 34.9283 20.2344 35 20 35C19.7656 35 19.5369 34.9283 19.3444 34.7944C19.152 34.6606 19.0052 34.4711 18.9236 34.2514L15.594 25.0949C15.5358 24.9371 15.4441 24.7938 15.3252 24.6748C15.2062 24.5559 15.0629 24.4642 14.9051 24.406L5.74861 21.0764C5.52888 20.9948 5.33938 20.848 5.20555 20.6556C5.07173 20.4631 5 20.2344 5 20C5 19.7656 5.07173 19.5369 5.20555 19.3444C5.33938 19.152 5.52888 19.0052 5.74861 18.9236L14.9051 15.594C15.0629 15.5358 15.2062 15.4441 15.3252 15.3252C15.4441 15.2062 15.5358 15.0629 15.594 14.9051L18.9236 5.74861C19.0052 5.52888 19.152 5.33938 19.3444 5.20555C19.5369 5.07173 19.7656 5 20 5C20.2344 5 20.4631 5.07173 20.6556 5.20555C20.848 5.33938 20.9948 5.52888 21.0764 5.74861L24.406 14.9051C24.4642 15.0629 24.5559 15.2062 24.6748 15.3252C24.7938 15.4441 24.9371 15.5358 25.0949 15.594L34.2514 18.9236C34.4711 19.0052 34.6606 19.152 34.7944 19.3444C34.9283 19.5369 35 19.7656 35 20C35 20.2344 34.9283 20.4631 34.7944 20.6556C34.6606 20.848 34.4711 20.9948 34.2514 21.0764L25.0949 24.406C24.9371 24.4642 24.7938 24.5559 24.6748 24.6748C24.5559 24.7938 24.4642 24.9371 24.406 25.0949V25.0949Z" stroke="currentColor" stroke-width="1.5" stroke-linecap="round" stroke-linejoin="round"/>
</svg>
